<svg class="inline-block mb-[0.25em]" id="althea-logo" xmlns="http://www.w3.org/2000/svg" height="62" viewBox="0 0 193.92 36.48"><g id="logotype"><path id="l1" fill="#07f" d="m157.34,10.25v26.02h15.18v-4.36h-10.25V10.25h-4.92Zm23.19,0l-6.45,7.68,3.06,2.57,5.67-6.71h.34v18.12h-7.16v4.36h17.93v-4.36h-5.96V10.25h-7.42Z"></path><path id="althea" fill="#fff" d="m27.79,35.76h4.61l-9.79-24.53s-.02-.03-.03-.05l-3.96-9.97h0s-4.61-.01-4.61-.01L0,35.76h4.61l3.65-8.98h9.5c1.1,0,2.02-.91,2.02-1.97s-.91-2.02-2.02-2.02h-7.87l6.46-15.96m21.34,28.92h4.18V0h-4.18v35.76Zm9.31-21.12h15.31v-3.74h-6.34V2.5l-4.18,2.16v6.24h-4.8v3.74Zm12.67,21.6c1.1,0,2.5-.19,3.41-.48v-3.65c-.82.19-1.87.34-2.88.34-2.74,0-4.22-1.49-4.22-4.22v-8.54c0-1.1-.96-2.02-2.06-2.02s-2.11.96-2.11,2.02v8.64c0,5.04,2.88,7.92,7.87,7.92m25.15-.48h4.18v-16.37c0-5.66-3.5-9.22-9.07-9.22-3.12,0-6.34,1.63-7.87,3.79V0h-4.18v35.76h4.18v-14.69c0-3.94,3.12-6.96,7.01-6.96,3.55,0,5.76,2.3,5.76,6.05v15.6Zm33.94-11.33c.96-8.11-3.89-14.26-11.23-14.26s-12.14,5.52-12.14,13.15,4.99,13.15,12.14,13.15c5.62,0,9.98-3.26,11.04-8.26h-4.22c-.77,2.78-3.36,4.42-6.86,4.42-4.94,0-8.06-3.6-8.06-9.31s3.17-9.31,8.06-9.31c4.13,0,6.82,2.64,7.06,6.77h-9.98c-1.06,0-1.87.82-1.87,1.82s.82,1.82,1.87,1.82h14.21Zm25.3,11.33c-.14-3.41-.19-5.47-.19-7.39v-9.22c0-5.52-3.7-8.98-9.5-8.98s-9.74,3.26-10.13,8.26h4.03c.29-2.74,2.69-4.61,6-4.61,3.55,0,5.57,2.02,5.57,5.66v3.94c0,5.62-3.02,9.41-7.54,9.41-2.5,0-4.32-1.49-4.32-3.65,0-2.54,1.92-4.27,5.52-4.9l2.11-.38c1.06-.14,1.78-1.06,1.63-2.11-.14-1.1-1.15-1.73-2.4-1.54l-1.82.29c-5.81.91-9.12,4.03-9.12,8.64,0,4.32,3.22,7.3,7.92,7.3,3.55,0,6.38-1.78,8.21-5.04v4.32h4.03Z"></path></g></svg>